<?xml version="1.0" encoding="UTF-8"?>
<svg id="Vrstva_1" xmlns="http://www.w3.org/2000/svg" version="1.1" viewBox="0 0 2000 1000">
  <!-- Generator: Adobe Illustrator 29.7.1, SVG Export Plug-In . SVG Version: 2.1.1 Build 8)  -->
  <defs>
    <style>
      .st0 {
        fill: #fff;
      }
    </style>
  </defs>
  <g>
    <path d="M856.7,480.4c2.3-5.2,5.4-9.6,9.3-13.5,3.9-3.8,8.5-6.8,13.7-8.9s10.7-3.2,16.5-3.2,11.3,1.1,16.5,3.2,9.8,5,13.8,8.9c4,3.8,7.2,8.3,9.4,13.5,2.3,5.2,3.5,10.8,3.5,16.9s-1.2,11.8-3.5,16.9c-2.3,5.2-5.5,9.6-9.4,13.5-4,3.8-8.6,6.8-13.8,8.9-5.2,2.1-10.7,3.2-16.5,3.2s-11.3-1.1-16.5-3.2-9.8-5-13.7-8.9-7-8.3-9.3-13.5-3.5-10.8-3.5-16.9,1.2-11.8,3.5-16.9h0ZM818,529.1c4.2,9.8,10,18.4,17.5,25.7s16.4,13,26.7,17.2c10.4,4.1,21.8,6.2,34.2,6.2s23.7-2.1,34.1-6.2c10.4-4.1,19.4-9.9,26.9-17.2s13.4-15.9,17.6-25.7c4.2-9.8,6.3-20.4,6.3-31.8s-2.1-22-6.3-31.8-10-18.4-17.6-25.7-16.5-13-26.9-17.2c-10.4-4.1-21.8-6.2-34.1-6.2s-23.9,2.1-34.2,6.2c-10.4,4.1-19.2,9.9-26.7,17.2-7.4,7.3-13.2,15.9-17.5,25.7s-6.3,20.4-6.3,31.8,2.1,22,6.3,31.8Z"/>
    <path d="M1424.4,480.4c2.3-5.2,5.4-9.6,9.3-13.5,3.9-3.8,8.5-6.8,13.7-8.9s10.7-3.2,16.5-3.2,11.3,1.1,16.5,3.2,9.8,5,13.8,8.9,7.2,8.3,9.4,13.5c2.3,5.2,3.5,10.8,3.5,16.9s-1.2,11.8-3.5,16.9c-2.3,5.2-5.4,9.6-9.4,13.5-4,3.8-8.6,6.8-13.8,8.9-5.2,2.1-10.7,3.2-16.5,3.2s-11.3-1.1-16.5-3.2-9.8-5-13.7-8.9c-3.9-3.8-7-8.3-9.3-13.5s-3.5-10.8-3.5-16.9,1.2-11.8,3.5-16.9h0ZM1385.7,529.1c4.2,9.8,10,18.4,17.5,25.7,7.4,7.3,16.4,13,26.7,17.2,10.4,4.1,21.8,6.2,34.2,6.2s23.7-2.1,34.1-6.2c10.4-4.1,19.4-9.9,26.9-17.2s13.4-15.9,17.6-25.7,6.3-20.4,6.3-31.8-2.1-22-6.3-31.8c-4.2-9.8-10-18.4-17.6-25.7-7.6-7.3-16.5-13-26.9-17.2-10.4-4.1-21.8-6.2-34.1-6.2s-23.9,2.1-34.2,6.2c-10.4,4.1-19.2,9.9-26.7,17.2-7.4,7.3-13.2,15.9-17.5,25.7s-6.3,20.4-6.3,31.8,2.1,22,6.3,31.8Z"/>
    <polygon points="1117.2 514.3 1043.7 420.6 1003.9 420.6 1003.9 574 1043.7 574 1043.7 480.2 1117.2 574 1156.8 574 1156.8 420.6 1117.2 420.6 1117.2 514.3"/>
    <path d="M1364.9,516.5c-1.1-4-2.9-7.8-5.4-11s-5.8-6-9.7-8.2c-4-2.2-8.9-3.9-14.5-5,5.7-3.5,9.9-7.8,12.7-12.9,2.8-5.1,4.2-11.5,4.2-19.2,0-12.8-3.6-22.5-11-29.3-7.3-6.8-18-10.2-32.1-10.2h-59.3v153.4h64c8.2,0,15.4-.9,21.9-2.8s12-4.8,16.5-8.5c4.5-3.8,8-8.5,10.6-14,2.5-5.6,3.8-11.9,3.8-19.2s-.5-8.9-1.6-13h0ZM1289.6,451.1h7.3c12.4,0,18.7,4.9,18.7,14.9s-6.2,14.9-18.7,14.9h-7.3v-29.7h0ZM1319.9,539.2c-4.3,2.6-11.5,3.9-21.5,3.9h-8.7v-32.5h8.7c10,0,17.2,1.3,21.5,3.9,4.3,2.6,6.5,6.7,6.5,12.4s-2.2,9.8-6.5,12.4h0Z"/>
    <path d="M1802.3,511.2h0c11-2.6,19.2-7.5,24.9-14.7s8.4-16.7,8.4-28.4-1.1-12.6-3.2-18.3c-2.1-5.7-5.2-10.7-9.3-15s-9.4-7.8-15.7-10.3c-6.4-2.5-13.8-3.8-22.3-3.8h-61.9v153.4h39.8v-59l38,59h49.5l-48.1-62.9h-.1ZM1788.4,484.3c-4.2,3.2-10.2,4.9-18.1,4.9h-7.5v-37.8h7.5c7.9,0,13.9,1.6,18.1,4.9,4.2,3.2,6.3,7.9,6.3,14s-2.1,10.8-6.3,14h0Z"/>
    <path d="M1991.3,468.2c-3.9-9.3-9.3-17.5-16.1-24.4-6.9-7-14.8-12.6-24-16.8-9.1-4.2-18.9-6.3-29.3-6.3h-58.9v153.3h58.7c10.6,0,20.4-2.1,29.6-6.3,9.1-4.2,17.1-9.8,24-16.9s12.2-15.2,16.1-24.5,5.8-19,5.8-29-1.9-19.9-5.9-29.2h0ZM1952.6,514.5c-1.9,5.2-4.8,9.8-8.5,13.5-3.8,3.8-8.3,6.8-13.7,8.9-5.4,2.2-11.6,3.2-18.5,3.2h-9.2v-85.8h9.1c6.7,0,12.8,1.1,18.3,3.2,5.4,2.2,10,5.2,13.7,8.9,3.7,3.8,6.6,8.3,8.6,13.6,2.1,5.3,3.1,11,3.1,17.1s-1,12-2.9,17.2v.2Z"/>
    <polygon points="1902.7 454.4 1902.8 454.4 1902.8 454.4 1902.7 454.4"/>
    <path d="M1651.4,420.6h-43.4l-58.3,153.4h42.4l9.2-26.7h56.9l9.1,26.7h42.4l-58.3-153.4h0ZM1611.9,517h0l17.9-51,17.9,51h-35.8Z"/>
  </g>
  <g>
    <path d="M364,864.7c201,0,364-163.3,364-364.7s-162.9-364.7-364-364.7S0,298.6,0,500s162.9,364.7,364,364.7"/>
    <path class="st0" d="M365.6,623.6c-98.6,0-175.8-76.3-175.8-173.7s78.9-176.1,175.8-176.1,175.8,79,175.8,176.1-77.2,173.7-175.8,173.7M365.6,323.4c-69.7,0-126.3,56.8-126.3,126.5s55.5,124.1,126.3,124.1,126.3-54.5,126.3-124.1-56.7-126.5-126.3-126.5"/>
    <rect class="st0" x="275.5" y="650.8" width="180.1" height="49.4"/>
  </g>
</svg>